<svg xmlns="http://www.w3.org/2000/svg" xmlns:xlink="http://www.w3.org/1999/xlink" width="40" zoomAndPan="magnify" viewBox="0 0 30 30.000001" height="40" preserveAspectRatio="xMidYMid meet" version="1.0"><defs><clipPath id="682cf03f24"><path d="M 0.484375 0 L 29.515625 0 L 29.515625 29.03125 L 0.484375 29.03125 Z M 0.484375 0 " clip-rule="nonzero"/></clipPath><clipPath id="5dc998edaf"><path d="M 4.839844 9.117188 L 25.160156 9.117188 L 25.160156 20 L 4.839844 20 Z M 4.839844 9.117188 " clip-rule="nonzero"/></clipPath></defs><g clip-path="url(#682cf03f24)"><path fill="#ffffff" d="M 0.484375 0 L 29.515625 0 L 29.515625 29.03125 L 0.484375 29.03125 Z M 0.484375 0 " fill-opacity="1" fill-rule="nonzero"/><path fill="#ffffff" d="M 0.484375 0 L 29.515625 0 L 29.515625 29.03125 L 0.484375 29.03125 Z M 0.484375 0 " fill-opacity="1" fill-rule="nonzero"/></g><g clip-path="url(#5dc998edaf)"><path fill="#618d2c" d="M 25.011719 9.117188 L 5.035156 9.117188 C 4.941406 9.117188 4.863281 9.179688 4.863281 9.277344 C 4.847656 13.429688 7.367188 17.109375 11.171875 18.675781 L 11.171875 19.738281 C 11.171875 19.835938 11.28125 19.914062 11.378906 19.914062 L 18.671875 19.914062 C 18.765625 19.914062 18.78125 19.835938 18.78125 19.738281 L 18.78125 18.675781 C 22.585938 17.125 25.152344 13.445312 25.152344 9.277344 C 25.152344 9.179688 25.089844 9.117188 25.011719 9.117188 Z M 25.011719 9.117188 " fill-opacity="1" fill-rule="nonzero"/></g></svg>