<svg width="15" height="15" viewBox="0 0 15 15" fill="none" xmlns="http://www.w3.org/2000/svg">
<g style="mix-blend-mode:overlay">
<path d="M7.5 0C3.34895 0 0 3.37259 0 7.5C0 11.6511 3.37259 15 7.5 15C11.6511 15 15 11.6274 15 7.5C15 3.34914 11.6508 0 7.5 0ZM11.6037 6.13211L7.73571 8.49071C7.66494 8.53789 7.57058 8.56148 7.49981 8.56148C7.42904 8.56148 7.33468 8.53789 7.26391 8.49071C7.12237 8.39636 7.02801 8.25482 7.02801 8.08969L7.02819 2.35831C7.02819 2.09882 7.2405 1.88652 7.49998 1.88652C7.75946 1.88652 7.97177 2.09883 7.97177 2.35831V7.2639L11.1087 5.35349C11.321 5.21195 11.6274 5.28272 11.769 5.51861C11.8867 5.70733 11.816 5.99021 11.6036 6.13177L11.6037 6.13211Z" fill="white"/>
</g>
</svg>
